<?xml version="1.0"?>
<svg version="1.1" xmlns="http://www.w3.org/2000/svg" width="155px" height="200px" style=""><path fill="#262d91" d="M1.57861328125,119.564453125q0-1.16455078125,0.116455078125-2.781982421875t0.530517578125-2.678466796875q0.1552734375-0.3623046875,0.659912109375-0.711669921875t1.06103515625-0.427001953125t0.9833984375,0.12939453125t0.427001953125,0.90576171875q0,1.21630859375-0.0517578125,3.07958984375l0,0.80224609375q0,1.42333984375,0.12939453125,2.71728515625q0.18115234375,1.7080078125,0.7763671875,2.87255859375q0.517578125,1.06103515625,1.63037109375,1.06103515625l0.20703125,0q1.52685546875-0.103515625,2.25146484375-1.26806640625t0.9833984375-2.76904296875q0.23291015625-1.47509765625,0.23291015625-3.10546875l0-0.310546875q-0.02587890625-1.8115234375-0.02587890625-3.18310546875q0-5.46044921875-0.3623046875-10.94677734375t-0.3623046875-10.99853515625q0-0.90576171875-0.07763671875-1.966796875q-0.02587890625-0.38818359375-0.02587890625-0.7763671875q0-0.62109375,0.07763671875-1.1904296875q0.12939453125-0.90576171875,0.659912109375-1.513916015625t1.798583984375-0.608154296875q0.69873046875,0,1.281005859375,0.168212890625t1.048095703125,0.685791015625q0.59521484375,6.728515625,0.9833984375,13.677001953125t0.38818359375,13.728759765625q0,2.3291015625-0.38818359375,4.68408203125t-1.42333984375,4.244140625t-2.87255859375,3.07958984375t-4.68408203125,1.1904296875q-1.7080078125,0-2.8466796875-0.608154296875t-1.824462890625-1.669189453125t-0.9833984375-2.471435546875t-0.297607421875-3.040771484375z M22.195561523438,108.20361328125q0-1.52685546875,0.168212890625-3.70068359375t0.62109375-4.52880859375t1.21630859375-4.68408203125t1.953857421875-4.11474609375t2.8466796875-2.82080078125q1.37158203125-0.85400390625,3.1572265625-0.85400390625q0.3623046875,0,0.75048828125,0.0517578125q4.5029296875,0.4140625,6.922607421875,2.057373046875t3.532470703125,4.16650390625t1.2939453125,5.7451171875t0.18115234375,6.793212890625q0,2.87255859375-0.530517578125,6.249755859375t-1.876220703125,6.301513671875t-3.713623046875,4.878173828125t-6.016845703125,1.953857421875q-2.2255859375,0-3.894775390625-0.815185546875t-2.833740234375-2.173828125t-1.9150390625-3.1572265625t-1.138671875-3.7265625t-0.556396484375-3.894775390625t-0.168212890625-3.7265625z M27.448979492188,107.0390625q0,1.11279296875,0.02587890625,2.730224609375t0.219970703125,3.403076171875t0.504638671875,3.558349609375t0.918701171875,3.221923828125t1.539794921875,2.380859375t2.25146484375,0.9833984375l0.12939453125,0q1.1904296875,0,2.1220703125-0.90576171875q0.9833984375-0.95751953125,1.746826171875-2.30322265625t1.31982421875-2.833740234375t0.996337890625-2.549072265625l-0.103515625,0.23291015625q0.75048828125-2.380859375,1.00927734375-4.878173828125t0.2587890625-4.929931640625q0-1.16455078125-0.1552734375-2.807861328125t-0.504638671875-3.428955078125t-0.90576171875-3.532470703125t-1.410400390625-3.040771484375t-1.99267578125-1.966796875q-0.828125-0.49169921875-1.83740234375-0.517578125q-0.38818359375,0-0.7763671875,0.07763671875q-1.31982421875,0.2587890625-2.25146484375,1.2939453125t-1.513916015625,2.549072265625t-0.892822265625,3.3125t-0.478759765625,3.623046875t-0.194091796875,3.49365234375t-0.02587890625,2.833740234375z M39.120366210938,115.009765625l0-0.0517578125l0,0.0517578125z M50.2526953125,89.971923828125q-0.064697265625-0.789306640625,0.103515625-1.37158203125t0.6728515625-0.95751953125t1.617431640625-0.375244140625l4.16650390625,0q0.85400390625,0,2.238525390625,0.090576171875t2.97607421875,0.271728515625t3.170166015625,0.556396484375t2.885498046875,0.931640625t2.1220703125,1.37158203125t0.815185546875,1.927978515625q0,1.57861328125-0.918701171875,2.963134765625t-2.30322265625,2.497314453125t-2.92431640625,1.979736328125t-2.756103515625,1.565673828125q4.8134765625,1.06103515625,7.53076171875,4.3994140625t2.71728515625,8.3330078125q0,2.6396484375-1.00927734375,5.214599609375t-2.756103515625,4.645263671875t-4.140625,3.33837890625t-5.136962890625,1.26806640625q-0.3623046875,0-0.815185546875-0.07763671875t-0.828125-0.245849609375t-0.64697265625-0.478759765625t-0.271728515625-0.80224609375q0-2.27734375,2.45849609375-2.27734375q0.4140625,0,0.970458984375,0.116455078125t0.866943359375,0.478759765625q1.42333984375-0.59521484375,2.600830078125-1.88916015625t1.99267578125-2.885498046875t1.26806640625-3.33837890625t0.452880859375-3.170166015625q0-1.7080078125-0.504638671875-3.480712890625t-1.462158203125-3.28662109375t-2.35498046875-2.549072265625t-3.208984375-1.2939453125q-0.4658203125-0.0517578125-1.022216796875-0.07763671875l-1.11279296875-0.0517578125t-1.0869140625-0.1552734375t-0.918701171875-0.4140625q0.20703125,4.2958984375,0.530517578125,8.56591796875t0.866943359375,8.56591796875q0.20703125,0.20703125,0.28466796875,0.608154296875t0.12939453125,0.85400390625t0.0517578125,0.866943359375l0,0.69873046875q0,0.4658203125-0.310546875,0.763427734375t-0.737548828125,0.478759765625t-0.90576171875,0.23291015625t-0.841064453125,0.0517578125q-1.16455078125,0-1.78564453125-0.310546875t-0.8798828125-0.90576171875t-0.33642578125-1.358642578125t-0.12939453125-1.669189453125q-0.69873046875-7.22021484375-1.00927734375-14.28515625t-0.310546875-14.28515625q0-0.85400390625-0.064697265625-1.643310546875z M55.027353515625,88.8720703125q0,3.18310546875,0.20703125,6.379150390625t0.3623046875,6.379150390625q1.16455078125-0.69873046875,3.0537109375-1.643310546875t3.661865234375-2.083251953125t3.040771484375-2.51025390625t1.26806640625-2.97607421875q0-1.26806640625-1.5009765625-1.927978515625t-3.49365234375-0.9833984375t-3.894775390625-0.401123046875t-2.704345703125-0.23291015625z"/><path fill="#" d="M77.861328125,109.994140625q0-0.505859375,0.0205078125-1.4833984375t0.1435546875-1.9892578125t0.4033203125-1.83203125t0.8408203125-1.052734375q0.13671875-0.0546875,0.4443359375-0.095703125t0.615234375-0.02734375t0.546875,0.109375t0.2392578125,0.35546875q0,0.0546875-0.0546875,0.150390625t-0.287109375,0.30078125q-0.423828125,1.17578125-0.51953125,2.337890625t-0.095703125,2.392578125q0,0.724609375,0.0478515625,1.44921875t0.1572265625,1.462890625q0.21875-0.314453125,0.4443359375-0.943359375t0.478515625-1.3740234375t0.51953125-1.5107421875t0.6015625-1.39453125t0.73828125-1.0390625t0.9091796875-0.41015625q0.560546875,0,0.9365234375,0.7041015625t0.697265625,1.626953125t0.6015625,1.873046875t0.6767578125,1.4560546875q0.19140625-0.19140625,0.3076171875-0.4990234375t0.1845703125-0.6630859375t0.08203125-0.7041015625t0.013671875-0.5947265625q0-0.615234375-0.1845703125-1.3330078125t-0.3896484375-1.3466796875t-0.3896484375-1.0595703125t-0.1845703125-0.4990234375q0-0.109375,0.1162109375-0.177734375t0.2666015625-0.109375t0.3076171875-0.0546875t0.2392578125-0.013671875q0.505859375,0,0.8681640625,0.560546875t0.57421875,1.298828125t0.3076171875,1.4970703125t0.095703125,1.1826171875q0,0.533203125-0.08203125,1.134765625t-0.3076171875,1.1142578125t-0.6630859375,0.8544921875t-1.107421875,0.341796875q-0.806640625,0-1.326171875-0.451171875t-0.8408203125-1.09375t-0.505859375-1.4013671875t-0.3486328125-1.3740234375q-0.314453125,0.724609375-0.57421875,1.83203125t-0.65625,2.173828125t-1.01171875,1.818359375t-1.599609375,0.751953125t-1.4013671875-0.4853515625t-0.6630859375-1.3330078125l0.02734375,0.02734375q-0.1640625-0.615234375-0.2119140625-1.23046875t-0.0478515625-1.23046875z M91.97986328125,108.572265625q0-1.2578125,0.2939453125-2.4677734375t0.4990234375-2.4130859375q0.0546875-0.314453125,0.4306640625-0.3896484375t0.6357421875-0.0751953125q0.451171875,0,0.724609375,0.13671875q0.109375,0.0546875,0.205078125,0.123046875t0.095703125,0.177734375q0,1.17578125-0.2802734375,2.296875t-0.2802734375,2.37890625q0,0.423828125,0.0615234375,0.7998046875t0.1162109375,0.7451171875l0.08203125,0.396484375q0,0.109375,0.013671875,0.19140625t0.041015625,0.19140625q0,0.24609375-0.3486328125,0.3349609375t-0.6083984375,0.0888671875q-0.396484375,0-0.7314453125-0.1572265625t-0.5263671875-0.5400390625l-0.19140625-0.396484375q-0.1640625-0.314453125-0.1640625-0.7041015625t-0.068359375-0.7177734375z M92.85486328125,100.341796875l0-0.259765625q0-0.642578125,0.3212890625-1.1484375t0.9638671875-0.505859375q0.08203125,0,0.1572265625,0.013671875t0.1572265625,0.013671875q0.1640625,0.02734375,0.4306640625,0.1298828125t0.2666015625,0.3212890625l0,0.02734375q-0.0546875,0.109375-0.068359375,0.2255859375t-0.068359375,0.1982421875l0.02734375-0.02734375q-0.1640625,0.423828125-0.2666015625,0.68359375t-0.2255859375,0.4169921875t-0.3076171875,0.2255859375t-0.5263671875,0.068359375q-0.0546875,0-0.19140625-0.013671875t-0.2939453125-0.0546875t-0.2666015625-0.109375t-0.109375-0.205078125z M97.3894140625,100.21875q0-0.19140625,0.41015625-0.328125t0.9296875-0.2255859375t1.0048828125-0.1298828125t0.6630859375-0.068359375q0-0.369140625,0.02734375-0.7451171875t0.150390625-0.669921875t0.3896484375-0.4716796875t0.7451171875-0.177734375q0.396484375,0,0.6015625,0.095703125t0.4375,0.396484375q0.0546875,0.1640625,0.0546875,0.314453125l0,0.4580078125t-0.02734375,0.4716796875q0.505859375-0.0546875,1.0048828125-0.1298828125t1.0048828125-0.0751953125q0.369140625,0,0.505859375,0.013671875t0.2734375,0.328125q0.109375,0.314453125-0.2666015625,0.478515625t-0.90234375,0.24609375t-1.0458984375,0.123046875t-0.62890625,0.041015625q-0.1640625,2.3515625-0.3349609375,4.662109375t-0.1708984375,4.689453125q0,1.06640625,0.068359375,2.201171875t0.3828125,2.146484375q0.08203125,0.314453125,0.2734375,0.587890625t0.19140625,0.587890625q0,0.19140625-0.150390625,0.30078125t-0.3623046875,0.1845703125t-0.423828125,0.0888671875t-0.3486328125,0.013671875q-0.861328125,0-1.3125-0.642578125t-0.6494140625-1.5380859375t-0.2119140625-1.8388671875t-0.013671875-1.53125q0-1.203125,0.0478515625-2.4609375t0.1162109375-2.48828125t0.19140625-2.40625t0.287109375-2.1875q-0.478515625,0.0546875-0.9365234375,0.123046875t-0.9365234375,0.068359375q-0.109375,0-0.2939453125-0.013671875t-0.3486328125-0.068359375t-0.2802734375-0.150390625t-0.1162109375-0.2734375z M107.84388671875,110.390625l0-1.28515625q0-0.697265625,0.0341796875-1.9755859375t0.0888671875-2.802734375t0.150390625-3.1787109375t0.21875-3.1240234375t0.2939453125-2.6318359375t0.3896484375-1.72265625q0.13671875-0.314453125,0.451171875-0.396484375t0.615234375-0.08203125q0.478515625,0,0.8408203125,0.2119140625t0.3623046875,0.7724609375l-0.24609375,0.2734375q-0.478515625,3.158203125-0.615234375,6.34375t-0.19140625,6.37109375q0.341796875-0.533203125,0.7724609375-1.0458984375t0.95703125-0.9091796875t1.134765625-0.6357421875t1.3330078125-0.2392578125q0.9296875,0,1.5380859375,0.560546875t1.0048828125,1.4560546875t0.587890625,2.0029296875t0.2939453125,2.21484375t0.1435546875,2.0986328125t0.123046875,1.6474609375q-0.259765625,0.35546875-0.765625,0.35546875l-0.041015625,0q-0.21875,0-0.478515625-0.0546875t-0.341796875-0.2734375l0.02734375,0.02734375q-0.19140625-0.423828125-0.259765625-1.2236328125t-0.109375-1.763671875t-0.1435546875-1.9755859375t-0.3076171875-1.83203125t-0.6015625-1.353515625t-1.06640625-0.560546875l-0.08203125,0q-0.806640625,0-1.353515625,0.4921875q-0.57421875,0.51953125-0.9296875,1.3671875t-0.546875,1.88671875t-0.2939453125,2.0029296875t-0.1572265625,1.75t-0.13671875,1.1552734375q-0.08203125,0.314453125-0.4853515625,0.4169921875t-0.6904296875,0.1025390625q-0.669921875,0-1.09375-0.3828125q-0.314453125-0.751953125-0.369140625-1.873046875t-0.0546875-2.1875z M126.27822265625,111.78515625q-0.013671875-0.41015625-0.013671875-0.8203125q0-1.28515625,0.13671875-2.583984375q0.1640625-1.72265625,0.21875-3.390625q0.0546875-1.955078125,0.1640625-4.060546875q0.068359375-1.1484375,0.068359375-2.26953125q0-0.916015625-0.041015625-1.818359375q0.13671875-0.314453125,0.3623046875-0.423828125t0.5673828125-0.109375q0.1640625,0,0.3486328125,0.02734375t0.3212890625,0.13671875q0.19140625,0.02734375,0.4716796875,0.0546875t0.4306640625,0.1640625q0.0546875,0.08203125,0.2802734375,0.560546875t0.533203125,1.162109375t0.642578125,1.4833984375t0.642578125,1.517578125t0.533203125,1.2646484375t0.2802734375,0.68359375q1.28515625-2.32421875,2.515625-4.7783203125t2.693359375-4.6279296875q0.13671875-0.19140625,0.4716796875-0.2802734375t0.5537109375-0.0888671875q0.587890625,0,0.8544921875,0.2802734375t0.3486328125,0.7177734375q0.0546875,0.2734375,0.068359375,0.587890625q0.013671875,0.1640625-0.013671875,0.341796875q-0.0546875,0.505859375-0.0546875,0.95703125q0,3.185546875-0.21875,6.3232421875t-0.396484375,6.3369140625q-0.02734375,0.65625-0.02734375,1.3671875t0.02734375,1.4765625q0.013671875,0.2734375,0.013671875,0.533203125q0,1.203125-0.205078125,2.2421875q-0.19140625,0.314453125-0.62890625,0.396484375t-0.73828125,0.08203125q-0.642578125,0-1.23046875-0.30078125l-0.150390625-0.177734375l-0.0546875-0.21875t-0.02734375-0.21875q0-1.982421875,0.1435546875-3.9921875t0.3212890625-4.0126953125t0.3759765625-3.9990234375t0.3349609375-3.9921875q-0.806640625,1.33984375-1.5654296875,2.7275390625t-1.4287109375,2.8232421875q-0.24609375,0.560546875-0.4716796875,1.203125t-0.5400390625,1.1484375q-0.1640625,0.24609375-0.5537109375,0.30078125t-0.6767578125,0.0546875q-0.2734375,0-0.5673828125-0.095703125t-0.4033203125-0.41015625q-0.505859375-1.544921875-1.080078125-3.021484375t-1.162109375-2.994140625q0,1.01171875,0.041015625,2.6181640625t0.041015625,3.3291015625t-0.0546875,3.294921875t-0.259765625,2.48828125q-0.0546875,0.341796875-0.4443359375,0.423828125t-0.6767578125,0.08203125q-0.21875,0-0.4169921875-0.02734375t-0.3896484375-0.109375z M142.5158984375,109.4609375q0-0.95703125,0.2119140625-2.255859375t0.7177734375-2.4609375t1.3330078125-1.9755859375t2.0849609375-0.8134765625q1.17578125,0,1.763671875,0.6767578125t0.587890625,1.8251953125q0,0.751953125-0.2802734375,1.6474609375t-0.7998046875,1.6953125t-1.23046875,1.3330078125t-1.5859375,0.533203125l-0.35546875-0.02734375q0,0.369140625,0.109375,0.9912109375t0.3212890625,1.2373046875t0.546875,1.080078125t0.8134765625,0.46484375q0.697265625,0,1.33984375-0.560546875t1.216796875-1.244140625t1.06640625-1.244140625t0.90234375-0.560546875q0.21875,0,0.451171875,0.068359375t0.259765625,0.3828125q0,0.19140625-0.1025390625,0.314453125t-0.1845703125,0.2734375q-0.423828125,0.724609375-0.9228515625,1.380859375t-1.1279296875,1.189453125t-1.3740234375,0.8408203125t-1.6474609375,0.3076171875q-1.17578125,0-1.955078125-0.4169921875t-1.2578125-1.12109375t-0.6904296875-1.626953125t-0.2119140625-1.9345703125z M144.9631640625,108.421875l0.3828125,0.341796875q0.2734375,0.24609375,0.546875,0.109375t0.4921875-0.4990234375t0.4033203125-0.8955078125t0.328125-1.09375t0.2119140625-1.09375t0.068359375-0.888671875l0-0.46484375t-0.041015625-0.4921875t-0.1435546875-0.3896484375t-0.3212890625-0.1982421875q-0.068359375-0.013671875-0.123046875-0.013671875q-0.46484375,0-0.79296875,0.587890625q-0.35546875,0.65625-0.57421875,1.5927734375t-0.314453125,1.9208984375t-0.123046875,1.4765625z"/></svg>
